<svg width="97" height="26" viewBox="0 0 97 26" fill="none" xmlns="http://www.w3.org/2000/svg">
<path d="M0.661531 5.324C0.757531 3.836 1.32553 2.676 2.36553 1.844C3.42153 1.012 4.76553 0.595999 6.39753 0.595999C7.51753 0.595999 8.48553 0.795999 9.30153 1.196C10.1175 1.596 10.7335 2.14 11.1495 2.828C11.5655 3.516 11.7735 4.292 11.7735 5.156C11.7735 6.148 11.5095 6.996 10.9815 7.7C10.4535 8.404 9.82153 8.876 9.08553 9.116V9.212C10.0295 9.5 10.7655 10.028 11.2935 10.796C11.8215 11.548 12.0855 12.516 12.0855 13.7C12.0855 14.644 11.8695 15.484 11.4375 16.22C11.0055 16.956 10.3655 17.54 9.51753 17.972C8.66953 18.388 7.65353 18.596 6.46953 18.596C4.74153 18.596 3.31753 18.156 2.19753 17.276C1.09353 16.38 0.501531 15.1 0.421531 13.436H3.06153C3.12553 14.284 3.45353 14.98 4.04553 15.524C4.63753 16.052 5.43753 16.316 6.44553 16.316C7.42153 16.316 8.17353 16.052 8.70153 15.524C9.22953 14.98 9.49353 14.284 9.49353 13.436C9.49353 12.316 9.13353 11.524 8.41353 11.06C7.70953 10.58 6.62153 10.34 5.14953 10.34H4.52553V8.084H5.17353C6.46953 8.068 7.45353 7.852 8.12553 7.436C8.81353 7.02 9.15753 6.364 9.15753 5.468C9.15753 4.7 8.90953 4.092 8.41353 3.644C7.91753 3.18 7.21353 2.948 6.30153 2.948C5.40553 2.948 4.70953 3.18 4.21353 3.644C3.71753 4.092 3.42153 4.652 3.32553 5.324H0.661531ZM18.0555 0.74V18.5H15.3195V0.74H18.0555ZM33.7677 11.564C33.7677 12.06 33.7357 12.508 33.6717 12.908H23.5677C23.6477 13.964 24.0397 14.812 24.7437 15.452C25.4477 16.092 26.3117 16.412 27.3357 16.412C28.8077 16.412 29.8477 15.796 30.4557 14.564H33.4077C33.0077 15.78 32.2797 16.78 31.2237 17.564C30.1837 18.332 28.8877 18.716 27.3357 18.716C26.0717 18.716 24.9357 18.436 23.9277 17.876C22.9357 17.3 22.1517 16.5 21.5757 15.476C21.0157 14.436 20.7357 13.236 20.7357 11.876C20.7357 10.516 21.0077 9.324 21.5517 8.3C22.1117 7.26 22.8877 6.46 23.8797 5.9C24.8877 5.34 26.0397 5.06 27.3357 5.06C28.5837 5.06 29.6957 5.332 30.6717 5.876C31.6477 6.42 32.4077 7.188 32.9517 8.18C33.4957 9.156 33.7677 10.284 33.7677 11.564ZM30.9117 10.7C30.8957 9.692 30.5357 8.884 29.8317 8.276C29.1277 7.668 28.2557 7.364 27.2157 7.364C26.2717 7.364 25.4637 7.668 24.7917 8.276C24.1197 8.868 23.7197 9.676 23.5917 10.7H30.9117ZM41.7882 5.06C42.8122 5.06 43.7162 5.268 44.5002 5.684C45.3002 6.084 45.9242 6.588 46.3722 7.196V5.276H49.1322V18.716C49.1322 19.932 48.8762 21.012 48.3642 21.956C47.8522 22.916 47.1082 23.668 46.1322 24.212C45.1722 24.756 44.0202 25.028 42.6762 25.028C40.8842 25.028 39.3962 24.604 38.2122 23.756C37.0282 22.924 36.3562 21.788 36.1962 20.348H38.9082C39.1162 21.036 39.5562 21.588 40.2282 22.004C40.9162 22.436 41.7322 22.652 42.6762 22.652C43.7802 22.652 44.6682 22.316 45.3402 21.644C46.0282 20.972 46.3722 19.996 46.3722 18.716V16.508C45.9082 17.132 45.2762 17.66 44.4762 18.092C43.6922 18.508 42.7962 18.716 41.7882 18.716C40.6362 18.716 39.5802 18.428 38.6202 17.852C37.6762 17.26 36.9242 16.444 36.3642 15.404C35.8202 14.348 35.5482 13.156 35.5482 11.828C35.5482 10.5 35.8202 9.324 36.3642 8.3C36.9242 7.276 37.6762 6.484 38.6202 5.924C39.5802 5.348 40.6362 5.06 41.7882 5.06ZM46.3722 11.876C46.3722 10.964 46.1802 10.172 45.7962 9.5C45.4282 8.828 44.9402 8.316 44.3322 7.964C43.7242 7.612 43.0682 7.436 42.3642 7.436C41.6602 7.436 41.0042 7.612 40.3962 7.964C39.7882 8.3 39.2922 8.804 38.9082 9.476C38.5402 10.132 38.3562 10.916 38.3562 11.828C38.3562 12.74 38.5402 13.54 38.9082 14.228C39.2922 14.916 39.7882 15.444 40.3962 15.812C41.0202 16.164 41.6762 16.34 42.3642 16.34C43.0682 16.34 43.7242 16.164 44.3322 15.812C44.9402 15.46 45.4282 14.948 45.7962 14.276C46.1802 13.588 46.3722 12.788 46.3722 11.876ZM51.8138 11.828C51.8138 10.5 52.0858 9.324 52.6298 8.3C53.1898 7.276 53.9418 6.484 54.8858 5.924C55.8458 5.348 56.9018 5.06 58.0538 5.06C59.0938 5.06 59.9978 5.268 60.7658 5.684C61.5498 6.084 62.1738 6.588 62.6378 7.196V5.276H65.3978V18.5H62.6378V16.532C62.1738 17.156 61.5418 17.676 60.7418 18.092C59.9418 18.508 59.0298 18.716 58.0058 18.716C56.8698 18.716 55.8298 18.428 54.8858 17.852C53.9418 17.26 53.1898 16.444 52.6298 15.404C52.0858 14.348 51.8138 13.156 51.8138 11.828ZM62.6378 11.876C62.6378 10.964 62.4458 10.172 62.0618 9.5C61.6938 8.828 61.2058 8.316 60.5978 7.964C59.9898 7.612 59.3338 7.436 58.6298 7.436C57.9258 7.436 57.2698 7.612 56.6618 7.964C56.0538 8.3 55.5578 8.804 55.1738 9.476C54.8058 10.132 54.6218 10.916 54.6218 11.828C54.6218 12.74 54.8058 13.54 55.1738 14.228C55.5578 14.916 56.0538 15.444 56.6618 15.812C57.2858 16.164 57.9418 16.34 58.6298 16.34C59.3338 16.34 59.9898 16.164 60.5978 15.812C61.2058 15.46 61.6938 14.948 62.0618 14.276C62.4458 13.588 62.6378 12.788 62.6378 11.876ZM75.6634 5.06C76.7034 5.06 77.6314 5.276 78.4474 5.708C79.2794 6.14 79.9274 6.78 80.3914 7.628C80.8554 8.476 81.0874 9.5 81.0874 10.7V18.5H78.3754V11.108C78.3754 9.924 78.0794 9.02 77.4874 8.396C76.8954 7.756 76.0874 7.436 75.0634 7.436C74.0394 7.436 73.2234 7.756 72.6154 8.396C72.0234 9.02 71.7274 9.924 71.7274 11.108V18.5H68.9914V5.276H71.7274V6.788C72.1754 6.244 72.7434 5.82 73.4314 5.516C74.1354 5.212 74.8794 5.06 75.6634 5.06ZM87.7693 7.508V14.828C87.7693 15.324 87.8813 15.684 88.1053 15.908C88.3453 16.116 88.7453 16.22 89.3053 16.22H90.9853V18.5H88.8253C87.5933 18.5 86.6493 18.212 85.9933 17.636C85.3373 17.06 85.0093 16.124 85.0093 14.828V7.508H83.4493V5.276H85.0093V1.988H87.7693V5.276H90.9853V7.508H87.7693Z" fill="black"/>
<path d="M94.611 18.668C94.115 18.668 93.699 18.5 93.363 18.164C93.027 17.828 92.859 17.412 92.859 16.916C92.859 16.42 93.027 16.004 93.363 15.668C93.699 15.332 94.115 15.164 94.611 15.164C95.091 15.164 95.499 15.332 95.835 15.668C96.171 16.004 96.339 16.42 96.339 16.916C96.339 17.412 96.171 17.828 95.835 18.164C95.499 18.5 95.091 18.668 94.611 18.668Z" fill="#6C7275"/>
</svg>
